<svg width="32" height="32" viewBox="0 0 32 32" fill="none" xmlns="http://www.w3.org/2000/svg">
<path d="M12.9999 31.9998C12.6839 32.0014 12.3749 31.9065 12.1142 31.7279C11.8535 31.5492 11.6536 31.2952 11.5411 30.9998L9.05113 24.5248C9.0007 24.3943 8.92355 24.2759 8.82464 24.1769C8.72573 24.078 8.60723 24.0009 8.47676 23.9504L1.99988 21.4586C1.70485 21.3453 1.45108 21.1453 1.27208 20.8849C1.09308 20.6244 0.997252 20.3158 0.997252 19.9998C0.997252 19.6838 1.09308 19.3752 1.27208 19.1148C1.45108 18.8543 1.70485 18.6543 1.99988 18.5411L8.47488 16.0511C8.60536 16.0006 8.72385 15.9235 8.82277 15.8246C8.92168 15.7257 8.99883 15.6072 9.04926 15.4767L11.5411 8.99983C11.6544 8.70479 11.8544 8.45103 12.1148 8.27202C12.3753 8.09302 12.6839 7.9972 12.9999 7.9972C13.3159 7.9972 13.6245 8.09302 13.8849 8.27202C14.1454 8.45103 14.3454 8.70479 14.4586 8.99983L16.9486 15.4748C16.9991 15.6053 17.0762 15.7238 17.1751 15.8227C17.274 15.9216 17.3925 15.9988 17.523 16.0492L23.9605 18.5261C24.2676 18.6399 24.5321 18.8456 24.7181 19.1151C24.904 19.3846 25.0024 19.7049 24.9999 20.0323C24.9951 20.3428 24.8973 20.6448 24.719 20.8991C24.5407 21.1533 24.2902 21.3483 23.9999 21.4586L17.5249 23.9486C17.3944 23.999 17.2759 24.0762 17.177 24.1751C17.0781 24.274 17.0009 24.3925 16.9505 24.5229L14.4586 30.9998C14.3462 31.2952 14.1462 31.5492 13.8856 31.7279C13.6249 31.9065 13.3159 32.0014 12.9999 31.9998ZM5.49988 10.9998C5.3146 10.9998 5.13368 10.9437 4.98094 10.8388C4.8282 10.7339 4.71082 10.5852 4.64426 10.4123L3.59051 7.67233C3.56767 7.6124 3.53242 7.55798 3.48707 7.51264C3.44173 7.46729 3.38731 7.43204 3.32738 7.4092L0.587382 6.35545C0.414494 6.28887 0.26583 6.17148 0.160977 6.01875C0.0561237 5.86601 0 5.68509 0 5.49983C0 5.31456 0.0561237 5.13364 0.160977 4.98091C0.26583 4.82817 0.414494 4.71078 0.587382 4.6442L3.32738 3.59045C3.38725 3.56751 3.44161 3.53222 3.48695 3.48689C3.53228 3.44156 3.56756 3.38719 3.59051 3.32733L4.63488 0.611702C4.69378 0.451829 4.79513 0.311028 4.92805 0.204433C5.06096 0.0978377 5.22041 0.0294785 5.38926 0.00670215C5.59197 -0.0179415 5.79712 0.0257952 5.97216 0.130977C6.14719 0.236158 6.28211 0.396764 6.35551 0.587327L7.40926 3.32733C7.4322 3.38719 7.46748 3.44156 7.51282 3.48689C7.55815 3.53222 7.61252 3.56751 7.67238 3.59045L10.4124 4.6442C10.5853 4.71078 10.7339 4.82817 10.8388 4.98091C10.9436 5.13364 10.9998 5.31456 10.9998 5.49983C10.9998 5.68509 10.9436 5.86601 10.8388 6.01875C10.7339 6.17148 10.5853 6.28887 10.4124 6.35545L7.67238 7.4092C7.61246 7.43204 7.55804 7.46729 7.51269 7.51264C7.46734 7.55798 7.4321 7.6124 7.40926 7.67233L6.35551 10.4123C6.28895 10.5852 6.17157 10.7339 6.01883 10.8388C5.86609 10.9437 5.68516 10.9998 5.49988 10.9998ZM24.9999 15.9998C24.7978 15.9998 24.6004 15.9385 24.4338 15.824C24.2672 15.7095 24.1393 15.5472 24.0668 15.3586L22.6393 11.648C22.6141 11.5826 22.5756 11.5232 22.526 11.4737C22.4765 11.4241 22.4171 11.3856 22.3518 11.3605L18.6411 9.93295C18.4526 9.86031 18.2905 9.73228 18.1762 9.56571C18.0619 9.39914 18.0007 9.20185 18.0007 8.99983C18.0007 8.7978 18.0619 8.60051 18.1762 8.43394C18.2905 8.26737 18.4526 8.13934 18.6411 8.0667L22.3518 6.6392C22.4171 6.61409 22.4765 6.57552 22.526 6.52599C22.5756 6.47647 22.6141 6.41709 22.6393 6.3517L24.0561 2.66733C24.1208 2.4931 24.2315 2.33966 24.3765 2.22333C24.5214 2.107 24.6952 2.03214 24.8793 2.0067C25.1005 1.97992 25.3243 2.0278 25.5152 2.14272C25.7061 2.25765 25.8531 2.43305 25.933 2.64108L27.3605 6.3517C27.3856 6.41709 27.4242 6.47647 27.4737 6.52599C27.5232 6.57552 27.5826 6.61409 27.648 6.6392L31.3586 8.0667C31.5471 8.13934 31.7092 8.26737 31.8236 8.43394C31.9379 8.60051 31.9991 8.7978 31.9991 8.99983C31.9991 9.20185 31.9379 9.39914 31.8236 9.56571C31.7092 9.73228 31.5471 9.86031 31.3586 9.93295L27.648 11.3605C27.5826 11.3856 27.5232 11.4241 27.4737 11.4737C27.4242 11.5232 27.3856 11.5826 27.3605 11.648L25.933 15.3586C25.8605 15.5472 25.7325 15.7095 25.5659 15.824C25.3994 15.9385 25.202 15.9998 24.9999 15.9998Z" fill="black"/>
</svg>
