<svg width="24" height="24" viewBox="0 0 24 24" fill="none" xmlns="http://www.w3.org/2000/svg">
<path d="M19.432 4.44937V3.75C19.432 3.55109 19.353 3.36032 19.2123 3.21967C19.0717 3.07902 18.8809 3 18.682 3H5.31699C5.11807 3 4.92731 3.07902 4.78666 3.21967C4.646 3.36032 4.56699 3.55109 4.56699 3.75V4.44937C4.49855 4.98234 4.11464 8.70281 6.29808 11.2317C7.46386 12.5817 9.12745 13.3341 11.2495 13.4752V19.5H7.49949C7.30057 19.5 7.10981 19.579 6.96916 19.7197C6.8285 19.8603 6.74949 20.0511 6.74949 20.25C6.74949 20.4489 6.8285 20.6397 6.96916 20.7803C7.10981 20.921 7.30057 21 7.49949 21H16.4995C16.6984 21 16.8892 20.921 17.0298 20.7803C17.1705 20.6397 17.2495 20.4489 17.2495 20.25C17.2495 20.0511 17.1705 19.8603 17.0298 19.7197C16.8892 19.579 16.6984 19.5 16.4995 19.5H12.7495V13.4752C14.8715 13.3345 16.5351 12.5817 17.7009 11.2317C19.8843 8.70281 19.4995 4.98234 19.432 4.44937ZM6.05855 4.60922C6.06417 4.57308 6.06699 4.53657 6.06699 4.5H17.932C17.932 4.53657 17.9348 4.57308 17.9404 4.60922C18.0214 5.32052 18.0214 6.0387 17.9404 6.75H6.06136C5.98041 6.03875 5.97947 5.32067 6.05855 4.60922Z" fill="#112211"/>
</svg>
