<svg width="20" height="20" viewBox="0 0 20 20" fill="none" xmlns="http://www.w3.org/2000/svg">
<path d="M10.0004 17.5L10.0005 17.4766C9.75427 17.4763 9.51386 17.4019 9.31052 17.2631L9.31047 17.263C6.24226 15.1802 4.91467 13.7528 4.183 12.8613C2.6234 10.9605 1.87784 9.01066 1.89887 6.89984C1.92335 4.486 3.8599 2.52344 6.2145 2.52344C7.92677 2.52344 9.11343 3.48782 9.80571 4.29301L9.80579 4.2931C9.82999 4.32097 9.85989 4.34331 9.89347 4.35862C9.92705 4.37394 9.96353 4.38186 10.0004 4.38186C10.0373 4.38186 10.0738 4.37394 10.1074 4.35862C10.141 4.34331 10.1709 4.32097 10.1951 4.2931L10.1952 4.29301C10.8874 3.48705 12.0741 2.52344 13.7864 2.52344C16.141 2.52344 18.0775 4.48599 18.102 6.90024C18.123 9.01144 17.3767 10.9613 15.8179 12.8617C15.0862 13.7532 13.7586 15.1806 10.6904 17.2634L10.6904 17.2634C10.487 17.4021 10.2466 17.4764 10.0004 17.4766L10.0004 17.5ZM10.0004 17.5C10.2513 17.4998 10.4963 17.4241 10.7036 17.2828L10.1774 4.27773C10.1554 4.30307 10.1282 4.32338 10.0977 4.3373C10.0671 4.35122 10.034 4.35842 10.0004 4.35842C9.96688 4.35842 9.93372 4.35122 9.90319 4.3373C9.87267 4.32338 9.84548 4.30307 9.82348 4.27773C9.12895 3.46992 7.93637 2.5 6.2145 2.5C3.84653 2.5 1.90004 4.47344 1.87543 6.89961C1.85434 9.0168 2.60239 10.9719 4.16489 12.8762C4.89809 13.7695 6.22739 15.1984 9.29731 17.2824C9.50454 17.4239 9.74954 17.4997 10.0004 17.5Z" fill="black" stroke="#4C4850" stroke-width="0.046875"/>
</svg>
