<svg width="17" height="18" viewBox="0 0 17 18" fill="none" xmlns="http://www.w3.org/2000/svg">
<path d="M13.1999 0C13.5182 0 13.8234 0.126428 14.0485 0.35147C14.2735 0.576513 14.3999 0.881736 14.3999 1.19999V16.7999H16.1999C16.3591 16.7999 16.5117 16.8631 16.6242 16.9757C16.7367 17.0882 16.7999 17.2408 16.7999 17.3999C16.7999 17.559 16.7367 17.7117 16.6242 17.8242C16.5117 17.9367 16.3591 17.9999 16.1999 17.9999H0.599997C0.440868 17.9999 0.288256 17.9367 0.175735 17.8242C0.0632138 17.7117 0 17.559 0 17.3999C0 17.2408 0.0632138 17.0882 0.175735 16.9757C0.288256 16.8631 0.440868 16.7999 0.599997 16.7999H2.39999V1.19999C2.39999 0.881736 2.52642 0.576513 2.75146 0.35147C2.9765 0.126428 3.28172 0 3.59998 0H13.1999ZM10.7999 10.7999C11.1182 10.7999 11.4234 10.6735 11.6485 10.4485C11.8735 10.2234 11.9999 9.91821 11.9999 9.59996C11.9999 9.2817 11.8735 8.97647 11.6485 8.75143C11.4234 8.52639 11.1182 8.39996 10.7999 8.39996C10.4817 8.39996 10.1765 8.52639 9.95143 8.75143C9.72638 8.97647 9.59996 9.2817 9.59996 9.59996C9.59996 9.91821 9.72638 10.2234 9.95143 10.4485C10.1765 10.6735 10.4817 10.7999 10.7999 10.7999Z" fill="#8DD3BB"/>
</svg>
